<svg id="Layer_1" data-name="Layer 1" xmlns="http://www.w3.org/2000/svg" viewBox="0 0 158.94 137.46"><defs><style>.cls-1{fill:none;stroke:#ffde17;stroke-miterlimit:10;stroke-width:4px;}</style></defs><title>logo10</title><path class="cls-1" d="M78.3,115.86c-17.41-3.54-30.47-17.79-32.4-34.34-2.33-20,12.56-34.79,12.94-35.12.84-.73,1.84-1.52,1.84-1.52a42.75,42.75,0,0,1,4.09-3,32.51,32.51,0,0,1,4.44-2.34c1.35-.59,2.7-1,4.05-1.47A39.84,39.84,0,0,1,89,36.45h0c3.32.35,11.57,1.32,18.44,6.92a58.55,58.55,0,0,1,4.74,4.5c1,1,1.87,2,2.8,3.12.55.67,1.1,1.39,1.65,2.15s1,1.47,1.48,2.19a13,13,0,0,1,1.35,2.34,49.67,49.67,0,0,1,3.91,13.17,39.8,39.8,0,0,1-.54,14.34c-.32,1.33-.68,2.58-1.07,3.82-.26.79-.77,2.41-1.49,4.08a31.94,31.94,0,0,1-3.73,6.45,75.74,75.74,0,0,1-6.36,6.72h0A34.8,34.8,0,0,1,99.07,113a32.35,32.35,0,0,1-6.68,1.67L99.07,113h0l-6.68,1.67" transform="translate(-5.26 -7.33)"/><path class="cls-1" d="M86.53,92.67H83.84c-2.27,0-4.11,2.41-4.11,5.37v18.53c0,3,1.84,5.37,4.11,5.37h2.69c2.27,0,4.11-2.4,4.11-5.37V98C90.64,95.08,88.8,92.67,86.53,92.67Z" transform="translate(-5.26 -7.33)"/><path class="cls-1" d="M61.57,51.86" transform="translate(-5.26 -7.33)"/><polygon class="cls-1" points="40.89 2 118.05 2 156.63 68.73 118.05 135.46 40.89 135.46 2.31 68.73 40.89 2"/><path class="cls-1" d="M79.11,101.9A26.43,26.43,0,0,1,58.9,79.31C57.33,65.73,67.22,56,67.44,55.8c.56-.49,1.22-1,1.22-1a26.51,26.51,0,0,1,2.69-2,21.49,21.49,0,0,1,2.94-1.57c.89-.39,1.78-.68,2.67-1a26,26,0,0,1,10.4-1.08,21.78,21.78,0,0,1,15.3,7.64,29.2,29.2,0,0,1,2.94,3.53c.35.5.68,1,1,1.47a9.44,9.44,0,0,1,.89,1.56,33.57,33.57,0,0,1,2.58,8.82,27,27,0,0,1-.36,9.6A37.43,37.43,0,0,1,108,87.05,21.45,21.45,0,0,1,106.58,90c0,.09-.42.71-.89,1.37a22.94,22.94,0,0,1-4.35,4.51s3-2.84,3-2.84l-.23.25a31.94,31.94,0,0,1-5.91,5A28.16,28.16,0,0,1,91,101.66" transform="translate(-5.26 -7.33)"/></svg>