<!-- Generator: Adobe Illustrator 24.1.0, SVG Export Plug-In  -->
<svg version="1.1" xmlns="http://www.w3.org/2000/svg" xmlns:xlink="http://www.w3.org/1999/xlink" x="0px" y="0px"
	 width="52.956px" height="68px" viewBox="0 0 52.956 68" style="enable-background:new 0 0 52.956 68;" xml:space="preserve">
<style type="text/css">
	.st0{fill:#FED915;stroke:#FED915;stroke-miterlimit:10;}
</style>
<defs>
</defs>
<path class="st0" d="M26.478,67.5c-0.589,0-1.14-0.255-1.464-0.678C24.013,65.516,0.5,34.716,0.5,22.873
	C0.5,10.537,12.154,0.5,26.478,0.5s25.978,10.037,25.978,22.373c0,11.842-23.513,42.643-24.513,43.948
	C27.618,67.245,27.068,67.5,26.478,67.5z M26.478,3.523c-12.389,0-22.469,8.681-22.469,19.351c0,9.339,17.266,33.318,22.469,40.331
	c5.203-7.013,22.468-30.992,22.468-40.331C48.946,12.204,38.867,3.523,26.478,3.523z"/>
<path class="st0" d="M26.478,32.73c-6.31,0-11.444-4.422-11.444-9.857s5.134-9.857,11.444-9.857s11.444,4.422,11.444,9.857
	S32.789,32.73,26.478,32.73z M26.478,16.039c-4.376,0-7.935,3.065-7.935,6.834s3.559,6.834,7.935,6.834
	c4.375,0,7.934-3.065,7.934-6.834S30.853,16.039,26.478,16.039z"/>
</svg>