<!-- Generator: Adobe Illustrator 24.1.0, SVG Export Plug-In  -->
<svg version="1.1" xmlns="http://www.w3.org/2000/svg" xmlns:xlink="http://www.w3.org/1999/xlink" x="0px" y="0px" width="47px"
	 height="34px" viewBox="0 0 47 34" style="enable-background:new 0 0 47 34;" xml:space="preserve">
<style type="text/css">
	.st0{fill:#FED915;stroke:#FED915;stroke-miterlimit:10;}
</style>
<defs>
</defs>
<path class="st0" d="M46.5,1.458c0-0.529-0.429-0.958-0.958-0.958H1.458C0.929,0.5,0.5,0.929,0.5,1.458v31.083
	c0,0.529,0.429,0.958,0.958,0.958h44.083c0.529,0,0.958-0.429,0.958-0.958V1.458z M43.161,2.5L23.622,21.435L4.088,2.5H43.161z
	 M2.5,31.5V4.101l20.355,19.633c0.186,0.181,0.477,0.27,0.717,0.27c0.241,0,0.483-0.09,0.669-0.27L44.5,4.103V31.5H2.5z"/>
</svg>