<!-- Generator: Adobe Illustrator 24.1.0, SVG Export Plug-In  -->
<svg version="1.1" xmlns="http://www.w3.org/2000/svg" xmlns:xlink="http://www.w3.org/1999/xlink" x="0px" y="0px" width="45px"
	 height="33px" viewBox="0 0 45 33" style="enable-background:new 0 0 45 33;" xml:space="preserve">
<style type="text/css">
	.st0{fill:#FFFFFF;}
	.st1{fill:none;stroke:#FFFFFF;stroke-miterlimit:10;}
	.st2{fill:none;stroke:#FFFFFF;stroke-linecap:round;stroke-miterlimit:10;}
	.st3{fill:#F7931E;}
	.st4{fill:#FED915;}
	.st5{fill:#F7931E;stroke:#FFFFFF;stroke-linecap:round;stroke-miterlimit:10;}
	.st6{fill:#F7931E;stroke:#FFFFFF;stroke-miterlimit:10;}
	.st7{fill-rule:evenodd;clip-rule:evenodd;fill:#F7931E;}
</style>
<defs>
</defs>
<g>
	<g>
		<g>
			<path class="st0" d="M41.351,1C42.812,1,44,2.188,44,3.649v17.702C44,22.812,42.812,24,41.351,24H14.649
				C13.188,24,12,22.812,12,21.351V3.649C12,2.188,13.188,1,14.649,1H41.351 M41.351,0H14.649C12.642,0,11,1.642,11,3.649v17.702
				C11,23.358,12.642,25,14.649,25h26.702C43.358,25,45,23.358,45,21.351V3.649C45,1.642,43.358,0,41.351,0L41.351,0z"/>
		</g>
		<g>
			<path class="st0" d="M29.5,4h-2C27.225,4,27,4.225,27,4.5v0C27,4.775,27.225,5,27.5,5h2C29.775,5,30,4.775,30,4.5v0
				C30,4.225,29.775,4,29.5,4z"/>
			<path class="st0" d="M29.5,4h-2C27.225,4,27,4.225,27,4.5S27.225,5,27.5,5h2C29.775,5,30,4.775,30,4.5S29.775,4,29.5,4L29.5,4z"
				/>
		</g>
		<g>
			<line class="st1" x1="12" y1="17.5" x2="45" y2="17.483"/>
		</g>
		<line class="st1" x1="25.5" y1="25" x2="25.5" y2="32"/>
		<line class="st1" x1="31.5" y1="25" x2="31.5" y2="32"/>
		<line class="st2" x1="22.5" y1="32.5" x2="34.5" y2="32.453"/>
	</g>
	<g>
		<g>
			<g>
				<path class="st3" d="M6.293,32.5c-0.437,0-0.793-0.355-0.793-0.793V11.293c0-0.437,0.356-0.793,0.793-0.793h14.414
					c0.437,0,0.793,0.356,0.793,0.793v20.414c0,0.438-0.356,0.793-0.793,0.793H6.293z"/>
				<path class="st0" d="M20.707,11C20.866,11,21,11.134,21,11.293v20.414C21,31.866,20.866,32,20.707,32H6.293
					C6.134,32,6,31.866,6,31.707V11.293C6,11.134,6.134,11,6.293,11H20.707 M20.707,10H6.293C5.582,10,5,10.582,5,11.293v20.414
					C5,32.418,5.582,33,6.293,33h14.414C21.418,33,22,32.418,22,31.707V11.293C22,10.582,21.418,10,20.707,10L20.707,10z"/>
			</g>
		</g>
		<g>
			<rect x="7.5" y="12.5" class="st3" width="12" height="16"/>
			<path class="st0" d="M19,13v15H8V13H19 M20,12H7v17h13V12L20,12z"/>
		</g>
		<g>
			<line class="st2" x1="11.5" y1="30.5" x2="14.5" y2="30.5"/>
			<line class="st4" x1="11.5" y1="30.5" x2="14.5" y2="30.5"/>
		</g>
	</g>
	<g>
		<g>
			<path class="st3" d="M1.211,32.5c-0.392,0-0.711-0.319-0.711-0.711V18.211c0-0.392,0.319-0.711,0.711-0.711h6.578
				c0.392,0,0.711,0.319,0.711,0.711v13.578c0,0.392-0.319,0.711-0.711,0.711H1.211z"/>
			<path class="st0" d="M7.789,18C7.905,18,8,18.095,8,18.211v13.578C8,31.905,7.905,32,7.789,32H1.211C1.095,32,1,31.905,1,31.789
				V18.211C1,18.095,1.095,18,1.211,18H7.789 M7.789,17H1.211C0.542,17,0,17.542,0,18.211v13.578C0,32.458,0.542,33,1.211,33h6.578
				C8.458,33,9,32.458,9,31.789V18.211C9,17.542,8.458,17,7.789,17L7.789,17z"/>
		</g>
		<line class="st5" x1="3.5" y1="31" x2="5.5" y2="31"/>
		<line class="st6" x1="1" y1="29.5" x2="9" y2="29.5"/>
		<g>
			<line class="st1" x1="0" y1="19.5" x2="8" y2="19.5"/>
			<line class="st7" x1="0" y1="19.5" x2="8" y2="19.5"/>
		</g>
	</g>
</g>
</svg>