<svg id="Layer_1" data-name="Layer 1" xmlns="http://www.w3.org/2000/svg" viewBox="0 0 46 57"><defs><style>.cls-1,.cls-2{fill:#fff;}.cls-2{font-size:9px;font-family:ArialMT, Arial;}</style></defs><path class="cls-1" d="M30,21V78H76V21Zm9.09.89A1.15,1.15,0,1,1,37.89,23,1.18,1.18,0,0,1,39.09,21.89Zm-3.21,0A1.15,1.15,0,1,1,34.68,23,1.18,1.18,0,0,1,35.88,21.89Zm-3.21,0A1.15,1.15,0,1,1,31.47,23,1.18,1.18,0,0,1,32.67,21.89ZM74.66,77H31.34V25.07H74.66Z" transform="translate(-30 -21)"/><circle class="cls-1" cx="16" cy="14" r="4.5"/><circle class="cls-1" cx="16" cy="29" r="4.5"/><circle class="cls-1" cx="16" cy="45" r="4.5"/><text class="cls-2" transform="translate(3.21 17.08)">1</text><text class="cls-2" transform="translate(3.76 32.08)">2</text><text class="cls-2" transform="translate(3.76 48.08)">3</text><rect class="cls-1" x="23" y="9.25" width="9" height="2.5"/><rect class="cls-1" x="23" y="13" width="14" height="1"/><rect class="cls-1" x="23" y="15" width="12" height="1"/><rect class="cls-1" x="23" y="17" width="14" height="1"/><rect class="cls-1" x="23.24" y="24.3" width="9" height="2.5"/><rect class="cls-1" x="23.24" y="28.05" width="14" height="1"/><rect class="cls-1" x="23.24" y="30.05" width="12" height="1"/><rect class="cls-1" x="23.24" y="32.05" width="14" height="1"/><rect class="cls-1" x="23.24" y="40.3" width="9" height="2.5"/><rect class="cls-1" x="23.24" y="44.05" width="14" height="1"/><rect class="cls-1" x="23.24" y="46.05" width="12" height="1"/><rect class="cls-1" x="23.24" y="48.05" width="14" height="1"/></svg>