<svg id="Layer_1" data-name="Layer 1" xmlns="http://www.w3.org/2000/svg" viewBox="0 0 45 33"><defs><style>.cls-1{fill:#fff;}.cls-2,.cls-3{fill:none;}.cls-2,.cls-3,.cls-6,.cls-7{stroke:#fff;stroke-miterlimit:10;}.cls-3,.cls-6{stroke-linecap:round;}.cls-4,.cls-6,.cls-7{fill:#f7931e;}.cls-5{fill:#fed915;}</style></defs><path class="cls-1" d="M63.35,34A2.65,2.65,0,0,1,66,36.65v17.7A2.65,2.65,0,0,1,63.35,57H36.65A2.65,2.65,0,0,1,34,54.35V36.65A2.65,2.65,0,0,1,36.65,34h26.7m0-1H36.65A3.66,3.66,0,0,0,33,36.65v17.7A3.66,3.66,0,0,0,36.65,58h26.7A3.66,3.66,0,0,0,67,54.35V36.65A3.66,3.66,0,0,0,63.35,33Z" transform="translate(-22 -33)"/><rect class="cls-1" x="27" y="4" width="3" height="1" rx="0.5"/><path class="cls-1" d="M51.5,37h-2a.5.5,0,0,0,0,1h2a.5.5,0,0,0,0-1Z" transform="translate(-22 -33)"/><line class="cls-2" x1="12" y1="17.5" x2="45" y2="17.48"/><line class="cls-2" x1="25.5" y1="25" x2="25.5" y2="32"/><line class="cls-2" x1="31.5" y1="25" x2="31.5" y2="32"/><line class="cls-3" x1="22.5" y1="32.5" x2="34.5" y2="32.45"/><rect class="cls-4" x="5.5" y="10.5" width="16" height="22" rx="0.79"/><path class="cls-1" d="M42.71,44a.29.29,0,0,1,.29.29V64.71a.29.29,0,0,1-.29.29H28.29a.29.29,0,0,1-.29-.29V44.29a.29.29,0,0,1,.29-.29H42.71m0-1H28.29A1.29,1.29,0,0,0,27,44.29V64.71A1.29,1.29,0,0,0,28.29,66H42.71A1.29,1.29,0,0,0,44,64.71V44.29A1.29,1.29,0,0,0,42.71,43Z" transform="translate(-22 -33)"/><rect class="cls-4" x="7.5" y="12.5" width="12" height="16"/><path class="cls-1" d="M41,46V61H30V46H41m1-1H29V62H42V45Z" transform="translate(-22 -33)"/><line class="cls-3" x1="11.5" y1="30.5" x2="14.5" y2="30.5"/><line class="cls-5" x1="11.5" y1="30.5" x2="14.5" y2="30.5"/><rect class="cls-4" x="0.5" y="17.5" width="8" height="15" rx="0.71"/><path class="cls-1" d="M29.79,51a.21.21,0,0,1,.21.21V64.79a.21.21,0,0,1-.21.21H23.21a.21.21,0,0,1-.21-.21V51.21a.21.21,0,0,1,.21-.21h6.58m0-1H23.21A1.21,1.21,0,0,0,22,51.21V64.79A1.21,1.21,0,0,0,23.21,66h6.58A1.21,1.21,0,0,0,31,64.79V51.21A1.21,1.21,0,0,0,29.79,50Z" transform="translate(-22 -33)"/><line class="cls-6" x1="3.5" y1="31" x2="5.5" y2="31"/><line class="cls-7" x1="1" y1="29.5" x2="9" y2="29.5"/><line class="cls-2" y1="19.5" x2="8" y2="19.5"/><line class="cls-4" y1="19.5" x2="8" y2="19.5"/></svg>